<?xml version="1.0" encoding="UTF-8" standalone="no"?>
<svg
   xmlns:dc="http://purl.org/dc/elements/1.1/"
   xmlns:cc="http://creativecommons.org/ns#"
   xmlns:rdf="http://www.w3.org/1999/02/22-rdf-syntax-ns#"
   xmlns:svg="http://www.w3.org/2000/svg"
   xmlns="http://www.w3.org/2000/svg"
   xmlns:xlink="http://www.w3.org/1999/xlink"
   xmlns:sodipodi="http://sodipodi.sourceforge.net/DTD/sodipodi-0.dtd"
   xmlns:inkscape="http://www.inkscape.org/namespaces/inkscape"
   width="128"
   height="128"
   viewBox="0 0 33.866666 33.866668"
   version="1.1"
   id="svg8"
   shape-rendering="crispEdges"
   inkscape:version="1.0.2-2 (e86c870879, 2021-01-15)"
   sodipodi:docname="clean_chicks_logo.svg">
  <defs
     id="defs2">
    <linearGradient
       inkscape:collect="always"
       id="bggradient">
      <stop
         style="stop-color:#ef32d9;stop-opacity:1;"
         offset="0"
         id="stop880" />
      <stop
         style="stop-color:#ef32d9;stop-opacity:0.85098039;"
         offset="0.19037353"
         id="stop893" />
      <stop
         style="stop-color:#dc50d9;stop-opacity:1"
         offset="0.34463987"
         id="stop895" />
      <stop
         style="stop-color:#7032d9;stop-opacity:0.99823534"
         offset="0.64841771"
         id="stop897" />
      <stop
         style="stop-color:#7032d9;stop-opacity:1"
         offset="0.97739542"
         id="stop899" />
      <stop
         style="stop-color:#1132d9;stop-opacity:0.99823534"
         offset="1"
         id="stop882" />
    </linearGradient>
    <filter
       inkscape:collect="always"
       style="color-interpolation-filters:sRGB"
       id="filter1300"
       x="-0.020331081"
       width="1.0406622"
       y="-0.020236579"
       height="1.0404732">
      <feGaussianBlur
         inkscape:collect="always"
         stdDeviation="0.28692871"
         id="feGaussianBlur1302" />
    </filter>
    <filter
       inkscape:collect="always"
       style="color-interpolation-filters:sRGB"
       id="filter865"
       x="-0.0019321297"
       width="1.0038643"
       y="-0.0019080216"
       height="1.003816">
      <feGaussianBlur
         inkscape:collect="always"
         stdDeviation="0.025820745"
         id="feGaussianBlur867" />
    </filter>
    <linearGradient
       inkscape:collect="always"
       xlink:href="#bggradient"
       id="linearGradient886"
       x1="-7.4349589"
       y1="9.3745136"
       x2="41.914261"
       y2="37.62281"
       gradientUnits="userSpaceOnUse"
       gradientTransform="translate(240.50625,-3.7041667)" />
  </defs>
  <sodipodi:namedview
     id="base"
     pagecolor="#ffffff"
     bordercolor="#666666"
     borderopacity="1.0"
     inkscape:pageopacity="0.0"
     inkscape:pageshadow="2"
     inkscape:zoom="1"
     inkscape:cx="974.55098"
     inkscape:cy="62.133124"
     inkscape:document-units="px"
     inkscape:current-layer="g904"
     inkscape:document-rotation="0"
     showgrid="true"
     units="px"
     inkscape:pagecheckerboard="true"
     showguides="false"
     inkscape:snap-global="true"
     inkscape:window-width="1366"
     inkscape:window-height="705"
     inkscape:window-x="-8"
     inkscape:window-y="-8"
     inkscape:window-maximized="1" />
  <metadata
     id="metadata5">
    <rdf:RDF>
      <cc:Work
         rdf:about="">
        <dc:format>image/svg+xml</dc:format>
        <dc:type
           rdf:resource="http://purl.org/dc/dcmitype/StillImage" />
        <dc:title />
      </cc:Work>
    </rdf:RDF>
  </metadata>
  <g
     inkscape:groupmode="layer"
     id="layer3"
     inkscape:label="bg"
     style="display:inline;opacity:0.65" />
  <g
     inkscape:groupmode="layer"
     id="layer1"
     inkscape:label="overlay"
     style="display:inline" />
  <g
     inkscape:groupmode="layer"
     id="layer2"
     inkscape:label="silouette"
     style="display:inline;opacity:0.85;filter:url(#filter865)">
    <g
       id="g904"
       inkscape:export-filename="F:\Renee\images\clean_chicks_logo_purple.png"
       inkscape:export-xdpi="96"
       inkscape:export-ydpi="96"
       style="opacity:0.9902">
      <path
         id="path849"
         style="display:inline;fill:url(#linearGradient886);fill-opacity:1;stroke:#ffffff;stroke-width:0.037996"
         d="M 283.76398,14.146858 A 25.910169,19.560169 0 0 1 257.85381,33.707026 25.910169,19.560169 0 0 1 231.94364,14.146858 25.910169,19.560169 0 0 1 257.85381,-5.4133116 25.910169,19.560169 0 0 1 283.76398,14.146858 Z" />
      <path
         style="display:inline;opacity:0.86;fill:#545154;fill-opacity:0.47;stroke:#ffffff;stroke-width:0.0264583;stroke-linecap:butt;stroke-linejoin:miter;stroke-miterlimit:4;stroke-dasharray:none;stroke-opacity:1;filter:url(#filter1300)"
         d="m 15.26465,33.6307 c -0.240265,0.320353 0.705294,0.313398 1.143441,0.285861 0.438147,-0.02754 0.626195,0.183761 1.114855,0.02859 0.48866,-0.155171 0.966391,-0.88848 1.632842,-1.252843 0.666451,-0.364363 2.004438,-0.519217 2.369202,-0.833936 0.364764,-0.314719 0.0407,-0.210071 0.02171,-0.479517 -0.01899,-0.269451 -0.470117,-0.372548 -0.679187,-0.835442 -0.20907,-0.462894 -0.287837,-1.260013 -0.262217,-1.888612 0.02562,-0.628599 0.418042,-1.088149 0.490905,-1.770398 0.07286,-0.682249 0.113994,-1.427377 -0.14293,-2.058195 -0.256924,-0.630818 -0.846394,-1.00331 -0.04836,-0.764945 0.798035,0.238365 2.882716,0.413555 4.422022,0.336155 1.539306,-0.0774 3.20764,0.21115 4.373663,0.628893 1.166023,0.417743 2.176454,0.478929 2.830015,0.771822 0.653561,0.292893 0.9026,0.453427 1.143442,0.743237 0.240842,0.28981 0.290268,0.583011 0.504663,0.68757 0.498506,0.07971 0.401258,-0.315255 0.268662,-0.77032 -0.09565,-0.373562 -0.747271,-1.09916 -1.057682,-1.486473 -0.310411,-0.387313 -0.333109,-0.0566 -0.488972,-0.352488 -0.155863,-0.295885 -0.09937,-0.722837 -0.220306,-0.930014 -0.120932,-0.207177 -0.135702,-0.408139 -0.550011,-0.521426 -0.414311,-0.113287 -1.236477,0.403133 -1.943852,0.42879 -0.707375,0.02566 -1.540709,0.02661 -2.429811,-0.171516 -0.889102,-0.198127 -1.810606,-0.598078 -2.56823,-0.763441 -0.757624,-0.165363 -1.568363,0.290804 -1.948363,-0.208484 l -0.38,-0.499288 c -0.380001,-0.499287 1.416109,0.05566 2.066576,0.04191 0.650467,-0.01375 1.028677,-0.05767 1.578679,-0.119288 0.550002,-0.06161 2.36958,-0.698263 1.965988,-0.824051 -0.403592,-0.125788 -1.26488,-0.43108 -1.630906,-1.25779 -0.366026,-0.82671 -1.046524,-1.670567 -1.599314,-2.344054 -0.55279,-0.673487 -1.22941,-1.138374 -1.800919,-1.686576 -0.571509,-0.548202 -1.339649,-1.054888 -1.629404,-1.600817 -0.289755,-0.545929 -0.418522,-0.608761 -0.257274,-1.400716 0.161248,-0.791955 1.679435,-1.985814 1.886678,-2.8586027 0.0958,-0.40346 -0.09629,-0.7669457 -0.161922,-1.079264 -0.07634,-0.363306 -0.03865,-0.657374 -0.06677,-0.8645857 -0.05229,-0.3853425 -0.04292,0.1405475 0,0 0.04292,-0.1405475 0.265421,-0.5250619 0.28586,-0.7432365 0.02044,-0.2181746 -0.09672,-0.5322851 -0.428791,-0.6860649 -0.332068,-0.1537798 -1.127566,0.3824794 -1.372129,0.2001022 -0.244563,-0.1823772 -0.216885,-0.097833 0,-0.4859626 0.216885,-0.3881294 1.704969,-0.9822132 1.858092,-1.143441 0.153123,-0.1612278 0.736051,-0.8399292 0.714651,-1.2006131 -0.0214,-0.3606838 -0.03002,-0.3975038 0.02859,-0.5717207 0.05861,-0.1742169 0.530579,0.3277142 0.400204,0.5145485 -0.130375,0.1868343 -0.141296,1.1784248 -0.257274,1.4293014 -0.115978,0.2508766 -0.169589,0.8661716 0.25727,1.1720272 0.426859,0.3058556 0.566695,0.4723099 0.914753,0.5431346 0.348058,0.070825 0.726917,-0.025149 1.057683,-0.1429301 0.330766,-0.1177816 0.964236,-0.266362 0.886167,-0.5431345 -0.07807,-0.2767725 -0.437558,0.080155 -0.686065,0 C 26.62207,6.2223031 26.306931,5.9696436 26.155926,5.7879096 26.004921,5.6061756 25.955444,5.5204722 25.927238,5.301947 c -0.02821,-0.2185252 0.09223,-0.3046754 0.14293,-0.5091747 0.0507,-0.2044993 0.09522,-0.4774434 0.14293,-0.7200244 0.04771,-0.242581 0.08977,-0.6712529 -0.07587,-1.0207148 C 25.971588,2.7025712 25.590687,2.4624994 25.212588,2.329 24.834489,2.1955006 24.528194,2.1863373 24.267746,2.2230383 24.007298,2.2597393 23.962807,2.437554 23.668943,2.4147581 23.375079,2.3919621 22.958268,1.8464766 22.372255,1.8464766 c -0.586012,0 -0.649285,-0.010576 -0.990194,-0.060611 -0.340909,-0.050035 -0.546125,-0.2024408 -0.857582,-0.2572743 -0.311457,-0.054833 -0.712148,-0.082972 -1.000511,-0.057172 -0.288363,0.0258 -0.454083,0.074494 -0.714651,0.1715162 -0.260568,0.097022 -0.70485,0.2608795 -0.828995,0.4287904 -0.124145,0.1679109 -0.127936,0.2296565 -0.05717,0.3144463 0.07076,0.08479 0.236505,0.020516 0.343033,0 0.106528,-0.020515 0.200651,-0.1232162 0.28586,-0.1143441 0.08521,0.00887 0.143128,-0.00412 0.171516,0.1143441 0.02839,0.1184637 -0.127058,0.2856925 -0.257274,0.4573765 -0.130216,0.171684 -0.37989,0.4495704 -0.543135,0.5431344 -0.163245,0.093564 -0.708401,0.1541042 -0.857581,0.2286881 -0.14918,0.074584 -0.06073,0.1848266 0.02859,0.2858603 0.08932,0.1010337 0.463587,0.1383971 0.400205,0.2286881 -0.06338,0.090291 -0.197597,0.034296 -0.21443,0.1215008 -0.01683,0.087205 -0.02623,0.078552 0.01429,0.1250864 0.04052,0.046535 0.134356,0.1563188 0.0036,0.2108031 -0.130756,0.054484 -0.126218,-0.055928 -0.175061,0.028572 -0.04884,0.0845 0.18046,0.1634872 0.167959,0.3215893 -0.0125,0.1581021 -0.06163,0.2578855 -0.139372,0.3073034 -0.07774,0.049418 -0.120579,0.100047 -0.103592,0.2429743 0.01699,0.1429273 0.413177,0.1821437 0.47518,0.2144019 0.062,0.032258 0.440351,0.032375 0.686147,0.028572 0.245796,-0.0038 0.594652,-0.074115 0.786135,-0.057145 0.191483,0.01697 0.363726,0.2035867 0.371619,0.2572745 0.0079,0.053688 0.02457,0.3346931 -0.01437,0.5145346 -0.03894,0.1798415 -0.09347,0.4154934 -0.228688,0.5431346 C 18.988566,7.1161627 18.389612,7.5264157 18.209026,7.5888281 18.02844,7.6512401 17.51031,7.9201886 17.322846,8.3606522 17.135382,8.8011157 13.544954,7.4096623 13.515931,7.2238531 13.486911,7.0380439 13.326963,6.294807 13.172899,6.1089978 13.018835,5.9231886 13.253229,6.0785818 12.801281,5.8803097 12.349334,5.6820377 10.833844,5.232369 10.371468,5.1942451 9.9090921,5.1561211 10.678947,5.3281224 10.114194,5.2228311 9.5494411,5.1175397 6.8035757,4.2540897 6.9697304,4.022218 7.1358864,3.7903463 7.2126384,3.8181836 7.2270054,3.6791857 7.2413754,3.5401878 7.1130634,3.3729416 6.9948774,3.2671599 6.8766917,3.1613782 6.5869127,3.2563759 6.5409407,3.1360511 c -0.04597,-0.1203252 0.180849,-0.1152857 0.114344,-0.2001022 -0.0665,-0.084816 -0.311055,0.2233708 -0.400205,0.1143441 -0.19325,-0.2363377 0.304298,-0.4127942 0,-0.4287905 -0.304298,-0.015996 -0.755649,-0.212521 -0.887886,-0.3664598 -0.132237,-0.1539388 -0.296275,-0.256025 -0.412241,-0.3028402 -0.115965,-0.046815 -0.409274,-0.010512 -0.465759,-0.04879 -0.05648,-0.038278 0.404231,0.052737 0.321325,-0.1981675 -0.08291,-0.2509041 -0.284772,-3.49e-4 -0.277478,-0.1682924 0.0073,-0.1679433 -0.615216,-0.72051175 -1.022219,-0.80212825 -0.407004,-0.081616 -0.73305,-0.32197562 -0.824052,-0.072432 -0.02379,0.065229 0.244325,0.073574 0.322781,0.1296961 0.05594,0.040013 -0.309991,0.071752 -0.255522,0.1151173 0.161407,0.12850265 0.595895,0.19161185 0.450513,0.26629605 -0.14526,0.074622 -0.356565,0.056726 -0.833937,-0.062115 C 1.8932317,0.99254585 0.90293468,0.61811495 0.48070268,0.84916925 c -0.07176,0.03927 0.271128,0.087113 0.219246,0.1232265 -0.106012,0.0737919 -0.385359,0.0380049 -0.506926,0.095329 -0.168984,0.079683 -0.164944,0.2451075 -0.141111,0.2959926 0.04937,0.1054073 -0.08171,0.00749 0.02859,0 0.110296,-0.00749 0.214744,-0.07395 0.44706,-0.045351 0.232315,0.028599 1.07913902,0.2115752 0.71465102,0.2353509 -0.27058502,0.01765 -0.49346002,0.01289 -0.85123902,0.1224283 -0.06972,0.021346 -0.225407,0.030895 -0.36764,0.062293 -0.07634,0.016853 0.01291,0.1762729 -0.0082,0.1969999 -0.02284,0.022448 0.08507,-0.00933 -0.262033,0.056699 -0.312103,0.059372 -0.363015,-0.05342 -0.508071,0.029059 -0.158046,0.089866 -0.28847998,0.1264045 -0.39375698,0.2286883 -0.105277,0.1022838 -0.523009,0.1855259 -0.485962,0.3430323 0.03705,0.1575064 0.315405,-0.034886 0.371618,0.057172 0.05621,0.092058 -0.142221,0.1716456 -0.08576,0.2572741 0.05646,0.085629 0.319993,-0.1100889 0.343032,0.028586 0.02304,0.1386751 -0.364565,0.054832 -0.517987,0.048575 -0.153423,-0.00626 -0.335467,-0.2820389 -0.311008,-0.048575 0.02446,0.2334647 1.19496098,0.096123 0.773973,0.2807019 -0.222613,0.1043857 0.10614598,0.1041426 -0.484673,0.1530318 -0.0036,0.2015151 0.68642598,0.042941 0.69960498,0.2372858 0.01318,0.1943444 -0.64217998,-0.1854757 -0.64587198,0.072217 -0.0037,0.2576931 0.61874198,0.1752312 0.74001298,0.2001018 0.07711,0.015813 -0.06427,0.1295699 -0.30100698,0.2080962 -0.135597,0.044978 -0.377144,0.058035 -0.437502,0.086146 -0.165735,0.07719 0.434906,0.023414 0.3987,0.1631338 -0.03621,0.1397243 -0.62637,-0.085301 -0.672739,0.1111207 -0.04637,0.1964217 0.82574498,-0.139416 0.87477598,0.083824 0.02747,0.1250604 -0.34380198,0.113599 -0.52740198,0.2357545 -0.144135,0.095898 -0.351542,0.250981 -0.303743,0.3460681 0.07097,0.1411865 0.454699,0.6283243 0.469629,0.5025121 0.01493,-0.1258126 -0.13761,-0.3074055 0.0082,-0.3696838 0.145776,-0.062278 -0.05419,0.1161369 0.162918,0.2439484 0.21711298,0.1278116 0.12147598,-0.3076744 0.26221798,-0.2774778 0.140742,0.030197 -0.0017,0.1544695 0.122942,0.4537223 0.357943,-0.1313238 0.342693,-0.142053 0.691008,-0.1444345 0.171072,0.1191797 0.597489,-0.1601326 0.68456,-0.070498 0.08707,0.089635 -0.405533,0.074824 -0.28586,0.2622176 0.119672,0.1873934 0.64443402,-0.070403 0.85758002,-0.1478736 0.213147,-0.07747 0.360642,-0.2686858 0.428791,-0.200102 0.03723,0.03747 0.05545,0.114212 -0.0032,0.2401245 -0.04873,0.1045564 -0.333447,0.08084 -0.176878,0.1800682 0.51628,0.327202 0.755587,-0.4173546 0.933452,-0.5665619 0.177866,-0.1492072 0.153835,0.3623334 0.367965,0.3279871 0.101459,-0.016274 0.308981,-0.035565 0.426203,-0.1360652 0.130176,-0.1116062 -0.05393,-0.2144218 0.221389,-0.2422159 0.145394,-0.014678 0.23775,0.2082907 0.356358,0.3681794 0.118608,0.1598887 0.305461,-0.2377765 0.452218,-0.3161658 0.06207,-0.033153 0.179156,0.1716103 0.383836,0.263331 0.27928,0.1251502 0.418252,0.1140011 0.544457,-0.016159 0.165031,-0.1702017 -0.259464,-0.1875788 -0.218371,-0.3026249 0.04109,-0.1150463 0.638555,0.097815 0.828995,-0.085758 0.19044,-0.1835732 -0.35776,-0.1522571 -0.358293,-0.2875798 -5.33e-4,-0.1353226 0.751568,0.1876143 0.817174,-0.036968 0.06561,-0.2245827 -0.220062,0.011324 -0.201607,-0.1328283 0.01845,-0.1441528 0.01866,-0.00585 0.457377,-0.028586 0.4387157,-0.022737 -0.913095,-0.7077804 -0.228688,-0.4287903 0.6844057,0.27899 3.3909694,1.2336786 4.2021453,1.6579898 0.811176,0.4243111 0.197373,0.3411576 0.457377,0.6860646 0.260004,0.344907 0.710999,0.2985255 0.843308,0.2286881 0.132309,-0.069837 0.298559,0.4235208 0.471649,0.6003068 0.17309,0.176786 0.460751,0.3629043 0.557448,0.4573489 0.0967,0.094445 2.950419,0.1362329 2.849274,0.4651574 -0.101145,0.3289245 0.03718,0.8184948 0.114307,1.0147418 0.07713,0.1962477 0.204353,0.3894747 0.228783,0.5431347 0.02443,0.15366 -0.08315,0.17084 -0.02865,0.3429913 0.0545,0.172152 0.183426,0.549636 0.228785,0.92908 0.04536,0.379444 0.492227,0.998139 -0.171613,1.100528 -0.66384,0.102389 -4.606494,0.33211 -5.479243,0.06381 C 9.6845291,11.986698 9.1499601,11.971168 8.6849411,11.597516 8.2199221,11.223864 8.0778861,10.873662 7.5558101,10.611359 7.0337344,10.349056 6.6652657,10.312112 6.2837077,10.168255 c -0.381559,-0.143858 -0.639053,-0.3028857 -0.800409,-0.02863 -0.161357,0.274258 0.51971,0.371939 0.771822,0.514549 0.252113,0.142609 0.441629,0.0032 0.171544,0.142971 -0.270085,0.139794 -0.504732,-0.06242 -0.829022,-0.05721 -0.32429,0.0052 -0.727342,0.186707 -1.029097,0.200102 -0.301755,0.01339 -1.11711,-0.134165 -1.343544,-0.14293 -0.226433,-0.0088 -0.307385,-0.04089 -0.257274,0.200102 0.05011,0.240987 0.810576,0.210324 1.114855,0.28586 0.30428,0.07554 -0.595542,-0.06766 -0.71465,-0.02859 -0.119109,0.03907 -0.276263,-0.08164 -0.285861,0.114344 -0.0096,0.195982 0.487491,0.307026 0.771823,0.400205 0.284333,0.09318 0.754769,0.02086 0.800464,0.157216 0.04569,0.136359 0.272971,0.272259 0.628837,0.242988 0.355867,-0.02927 1.151021,-0.128751 1.37213,-0.200102 0.221109,-0.07135 0.6114817,-0.132036 0.9433254,0.04284 0.331843,0.174876 0.836311,0.365175 1.429356,0.743251 0.593045,0.378076 4.6803019,0.385186 5.3182159,0.662381 0.637914,0.277195 0.951759,0.350536 1.032727,0.488716 0.08097,0.13818 -0.459186,0.364439 -0.714568,1.172042 -0.255382,0.807603 -0.76919,4.263667 -0.857579,5.145489 -0.08839,0.881822 0.124559,-2.015781 -0.05051,0.25255 -0.175069,2.268331 -3.182462,1.180915 -1.550308,1.662722 1.632155,0.481807 3.522232,0.51496 4.213538,0.257274 0.691305,-0.257686 0.182765,0.174447 0.274465,0.600307 0.0917,0.42586 0.777845,1.076689 0.971925,1.657989 0.19408,0.5813 0.06407,1.220876 0.200102,1.743748 0.136033,0.522872 0.434871,0.651202 0.571721,1.37213 0.13685,0.720928 0.188932,1.979767 -0.05717,2.915774 -0.114182,0.434272 -0.571051,0.970344 -0.784921,1.464741 -0.247095,0.571202 -0.264536,1.073246 -0.587209,1.079416 -0.601959,0.01151 -0.674934,-0.125851 -0.971925,-0.02859 -0.296991,0.09726 -0.771822,0.428789 -0.771822,0.428789"
         id="path914"
         sodipodi:nodetypes="czzzzzzzzzzzzzzcczzzzzzzzszzzzzzzzssszzzzzzzzzzzzzzzzzzzzzzzzzzzzzzzzzzzzzzzzzzzzzzzzzzzzzzzzzzzzzzzszzzzzzzsssszsssszzsssssszzzzzzzcczzssszzssszzzzcczzzssszssszssszzzzzzzzzzzzzzzzzzzzzzzzzzzzzzzzzzzzzzzzzzzzzzzzzssszc"
         transform="matrix(0.83976684,0,0,0.91493915,245.10311,-1.4565635)" />
      <path
         style="fill:#060606;fill-opacity:1;stroke:#ffffff;stroke-width:0.0251233;stroke-linecap:butt;stroke-linejoin:miter;stroke-miterlimit:4;stroke-dasharray:none;stroke-opacity:1"
         d="m 255.82171,29.974568 c -0.22697,0.305758 0.66627,0.29912 1.08018,0.272838 0.4139,-0.02629 0.59154,0.175388 1.05317,0.02729 0.46162,-0.148101 0.91292,-0.848001 1.5425,-1.195763 0.62957,-0.347763 1.89353,-0.495562 2.23812,-0.795942 0.34458,-0.30038 0.0384,-0.2005 0.0205,-0.45767 -0.0179,-0.257175 -0.44411,-0.355575 -0.64161,-0.797379 -0.19751,-0.441805 -0.27192,-1.202607 -0.24771,-1.802567 0.0242,-0.59996 0.39491,-1.038572 0.46374,-1.689738 0.0688,-0.651166 0.10769,-1.362345 -0.13502,-1.964423 -0.24271,-0.602078 -0.79957,-0.957599 -0.0457,-0.730094 0.75388,0.227505 2.72322,0.394713 4.17736,0.32084 1.45413,-0.07387 3.03016,0.20153 4.13167,0.60024 1.10151,0.398711 2.05603,0.457109 2.67344,0.736658 0.6174,0.279548 0.85266,0.432769 1.08017,0.709375 0.22752,0.276606 0.27421,0.556449 0.47674,0.656244 0.47093,0.07608 0.37906,-0.300892 0.2538,-0.735224 -0.0904,-0.356543 -0.70593,-1.049082 -0.99916,-1.418749 -0.29324,-0.369667 -0.31468,-0.05402 -0.46192,-0.336429 -0.14724,-0.282404 -0.0939,-0.689904 -0.20812,-0.887642 -0.11424,-0.197738 -0.12819,-0.389544 -0.51958,-0.49767 -0.39138,-0.108126 -1.16806,0.384766 -1.8363,0.409254 -0.66823,0.02449 -1.45546,0.0254 -2.29537,-0.163701 -0.83991,-0.189101 -1.71043,-0.57083 -2.42613,-0.728659 -0.71571,-0.157829 -1.48159,0.277555 -1.84057,-0.198985 -0.35897,-0.476541 0,0 -0.35897,-0.476541 -0.35898,-0.476539 1.33776,0.05312 1.95223,0.04 0.61448,-0.01312 0.97176,-0.05504 1.49134,-0.113853 0.51957,-0.0588 2.23847,-0.66645 1.85721,-0.786507 -0.38126,-0.120057 -1.1949,-0.41144 -1.54067,-1.200485 -0.34578,-0.789045 -0.98862,-1.594456 -1.51083,-2.237259 -0.5222,-0.642802 -1.16139,-1.086509 -1.70127,-1.609735 -0.53989,-0.523226 -1.26553,-1.006827 -1.53926,-1.527883 -0.27372,-0.521057 -0.39536,-0.581026 -0.24304,-1.336899 0.15233,-0.7558737 1.58652,-1.8953397 1.7823,-2.7283647 0.0905,-0.385079 -0.091,-0.732005 -0.15297,-1.030093 -0.0721,-0.3467537 -0.0365,-0.6274243 -0.0631,-0.8251954 -0.0494,-0.3677863 -0.0405,0.1341441 0,0 0.0405,-0.1341442 0.25074,-0.50114 0.27005,-0.7093745 0.0193,-0.2082346 -0.0914,-0.5080341 -0.40507,-0.6548077 -0.31369,-0.1467736 -1.06518,0.3650536 -1.29621,0.1909855 -0.23103,-0.174068 -0.20489,-0.093376 0,-0.463822 0.20488,-0.3704462 1.61063,-0.9374634 1.75529,-1.0913456 0.14465,-0.1538823 0.69532,-0.8016619 0.67511,-1.145913 -0.0202,-0.344251 -0.0284,-0.3793934 0.027,-0.545673 0.0554,-0.1662795 0.50122,0.3127835 0.37806,0.4911056 -0.12316,0.1783221 -0.13348,1.1247355 -0.24304,1.3641821 -0.10956,0.2394467 -0.16021,0.8267087 0.24303,1.1186295 0.40324,0.2919207 0.53534,0.4507913 0.86414,0.5183892 0.3288,0.067598 0.6867,-0.024003 0.99917,-0.1364181 0.31246,-0.1124155 0.91088,-0.2542265 0.83713,-0.5183892 -0.0738,-0.2641627 -0.41334,0.076503 -0.6481,0 -0.23476,-0.076501 -0.53246,-0.3176495 -0.67511,-0.4911037 -0.14265,-0.1734541 -0.18939,-0.2552529 -0.21603,-0.463822 -0.0267,-0.2085692 0.0871,-0.2907944 0.13502,-0.4859766 0.0479,-0.1951823 0.0899,-0.455691 0.13502,-0.68722 0.0451,-0.231529 0.0848,-0.6406705 -0.0717,-0.9742108 -0.15648,-0.3335424 -0.51631,-0.5626764 -0.87349,-0.6900936 -0.35718,-0.1274171 -0.64652,-0.1361629 -0.89256,-0.101134 -0.24604,0.035029 -0.28807,0.2047423 -0.56567,0.182985 -0.27761,-0.021757 -0.67136,-0.5423905 -1.22495,-0.5423905 -0.55359,0 -0.61336,-0.010094 -0.93541,-0.05785 -0.32204,-0.047755 -0.51591,-0.1932175 -0.81013,-0.2455528 -0.29422,-0.052335 -0.67275,-0.079192 -0.94515,-0.054567 -0.27241,0.024625 -0.42896,0.0711 -0.67511,0.1637019 -0.24616,0.092602 -0.66586,0.2489938 -0.78313,0.4092546 -0.11728,0.1602608 -0.12086,0.2191933 -0.054,0.3001201 0.0668,0.080927 0.22342,0.019581 0.32405,0 0.10064,-0.01958 0.18955,-0.1176025 0.27005,-0.1091346 0.0805,0.00847 0.1352,-0.00393 0.16202,0.1091346 0.0268,0.1130664 -0.12003,0.2726762 -0.24304,0.4365383 -0.12301,0.163862 -0.35887,0.4290878 -0.51308,0.5183891 -0.15422,0.089301 -0.66921,0.1470831 -0.81013,0.218269 -0.14093,0.071186 -0.0574,0.1764058 0.027,0.2728364 0.0844,0.096431 0.43793,0.1320917 0.37806,0.2182691 -0.0599,0.086177 -0.18667,0.032733 -0.20257,0.1159652 -0.0159,0.083232 -0.0248,0.074973 0.0135,0.1193874 0.0383,0.044415 0.12692,0.1491969 0.003,0.2011989 -0.12352,0.052002 -0.11923,-0.05338 -0.16537,0.02727 -0.0461,0.08065 0.17047,0.1560387 0.15866,0.3069377 -0.0118,0.1508989 -0.0582,0.2461361 -0.13166,0.2933026 -0.0734,0.047167 -0.11391,0.095489 -0.0979,0.2319043 0.016,0.1364155 0.39032,0.1738452 0.44889,0.2046337 0.0586,0.030788 0.41599,0.0309 0.64818,0.02727 0.2322,-0.00363 0.56176,-0.070738 0.74264,-0.054542 0.18089,0.016197 0.34361,0.1943112 0.35106,0.245553 0.007,0.051242 0.0232,0.3194444 -0.0136,0.4910923 -0.0368,0.1716479 -0.0883,0.3965635 -0.21603,0.5183893 -0.12773,0.1218271 -0.69355,0.5133888 -0.86414,0.5729577 -0.1706,0.059569 -0.66006,0.3162637 -0.83715,0.7366593 -0.17709,0.420396 -1.18778,-1.4596746 -1.2152,-1.6370183 -0.0274,-0.1773437 -0.17851,-0.8867186 -0.32405,-1.0640623 -0.14554,-0.1773437 0.0759,-0.02903 -0.35106,-0.218269 -0.42694,-0.1892387 -1.85858,-0.6184204 -2.29538,-0.6548074 -0.43679,-0.036387 0.29047,0.1277778 -0.24304,0.027284 -0.5335,-0.1004943 -3.12744,-0.9246053 -2.97048,-1.1459129 0.15696,-0.2213076 0.22947,-0.1947386 0.24304,-0.3274037 0.0136,-0.1326651 -0.10764,-0.2922916 -0.21928,-0.3932538 -0.11165,-0.1009623 -0.3854,-0.0102927 -0.42883,-0.1251354 -0.0434,-0.1148432 0.17085,-0.1100333 0.10802,-0.1909855 -0.0628,-0.0809518 -0.29384,0.2131939 -0.37806,0.1091345 -0.18256,-0.2255701 0.28746,-0.3939872 0,-0.4092547 -0.28746,-0.0152672 -0.71384,-0.2028385 -0.83876,-0.3497638 -0.12492,-0.1469254 -0.27988,-0.2443605 -0.38943,-0.2890428 -0.10955,-0.0446821 -0.38663,-0.010033 -0.43999,-0.0465671 -0.0534,-0.036534 0.38186,0.0503343 0.30354,-0.1891389 -0.0783,-0.2394728 -0.26901,-3.331e-4 -0.26212,-0.160625 0.007,-0.1602918 -0.58118,-0.6876852 -0.96566,-0.7655832 -0.38449,-0.077898 -0.69249,-0.3073064 -0.77846,-0.069132 -0.0225,0.062257 0.23081,0.070222 0.30492,0.1237871 0.0528,0.03819 -0.29284,0.068483 -0.24138,0.1098726 0.15247,0.1226481 0.56292,0.1828819 0.42558,0.2541636 -0.13722,0.071222 -0.33683,0.054141 -0.78779,-0.059285 -0.45096,-0.1134266 -1.38647,-0.4707984 -1.78534,-0.250271 -0.0678,0.037481 0.25613,0.083144 0.20712,0.1176122 -0.10015,0.07043 -0.36404,0.036274 -0.47888,0.090986 -0.15964,0.076053 -0.15582,0.2339404 -0.13331,0.2825071 0.0466,0.1006049 -0.0772,0.00714 0.027,0 0.1042,-0.00714 0.20286,-0.070581 0.42233,-0.043284 0.21946,0.027296 1.01943,0.2019358 0.67511,0.2246284 -0.25562,0.016846 -0.46616,0.012302 -0.80414,0.11685 -0.0659,0.020374 -0.21294,0.029487 -0.3473,0.059455 -0.0721,0.016085 0.0122,0.1682418 -0.008,0.1880246 -0.0216,0.021425 0.0804,-0.0089 -0.24754,0.054116 -0.29483,0.056667 -0.34292,-0.050986 -0.47995,0.027735 -0.14931,0.085772 -0.27252,0.1206454 -0.37198,0.2182691 -0.0994,0.097624 -0.49407,0.1770733 -0.45907,0.3274037 0.035,0.1503304 0.29795,-0.033297 0.35106,0.054567 0.0531,0.087864 -0.13436,0.1638253 -0.081,0.2455527 0.0533,0.081728 0.30229,-0.1050732 0.32405,0.027284 0.0218,0.1323569 -0.34439,0.052334 -0.48932,0.046362 -0.14494,-0.00598 -0.31691,-0.2691905 -0.2938,-0.046363 0.0231,0.222828 1.12884,0.091744 0.73115,0.267913 -0.2103,0.09963 0.10027,0.099398 -0.45786,0.1460596 -0.003,0.192334 0.64845,0.040985 0.6609,0.2264749 0.0125,0.18549 -0.60665,-0.1770255 -0.61014,0.068927 -0.004,0.2459523 0.58451,0.1672472 0.69907,0.190985 0.0728,0.015093 -0.0607,0.1236668 -0.28435,0.1986155 -0.1281,0.042929 -0.35628,0.055391 -0.4133,0.082221 -0.15656,0.073673 0.41084,0.022347 0.37664,0.1557013 -0.0342,0.1333586 -0.59171,-0.081414 -0.63552,0.1060582 -0.0438,0.1874727 0.78006,-0.1330641 0.82638,0.080005 0.0259,0.1193626 -0.32478,0.1084233 -0.49822,0.2250134 -0.13616,0.091529 -0.33209,0.2395463 -0.28694,0.3303011 0.067,0.134754 0.42954,0.5996977 0.44365,0.4796175 0.0141,-0.1200804 -0.13,-0.2934001 0.008,-0.3528409 0.13771,-0.059441 -0.0512,0.1108457 0.15391,0.2328341 0.2051,0.1219885 0.11475,-0.2936567 0.24771,-0.2648359 0.13295,0.028821 -0.002,0.1474319 0.11614,0.4330507 0.33813,-0.1253406 0.32373,-0.135581 0.65277,-0.1378541 0.16161,0.1137499 0.56443,-0.1528369 0.64669,-0.067286 0.0822,0.085551 -0.3831,0.071415 -0.27005,0.2502709 0.11305,0.1788558 0.60878,-0.067195 0.81013,-0.1411364 0.20136,-0.07394 0.34069,-0.2564444 0.40507,-0.1909853 0.0352,0.035763 0.0524,0.1090086 -0.003,0.2291844 -0.046,0.099793 -0.315,0.077157 -0.16709,0.1718642 0.48771,0.3122945 0.71378,-0.3983399 0.8818,-0.5407492 0.16803,-0.1424093 0.14532,0.3458253 0.34761,0.3130439 0.0958,-0.015532 0.29188,-0.033945 0.40262,-0.129866 0.12297,-0.1065213 -0.051,-0.2046528 0.20914,-0.2311805 0.13735,-0.014009 0.22459,0.1988009 0.33664,0.351405 0.11205,0.152604 0.28856,-0.2269434 0.4272,-0.3017612 0.0586,-0.031643 0.16924,0.1637917 0.3626,0.2513335 0.26382,0.1194485 0.39511,0.1088073 0.51433,-0.015423 0.1559,-0.1624473 -0.24511,-0.1790325 -0.20629,-0.2888373 0.0388,-0.1098048 0.60322,0.093358 0.78313,-0.081851 0.1799,-0.1752096 -0.33797,-0.1453203 -0.33847,-0.2744776 -5e-4,-0.1291573 0.70998,0.1790666 0.77196,-0.035284 0.062,-0.2143507 -0.20789,0.010808 -0.19045,-0.1267766 0.0174,-0.1375852 0.0176,-0.00558 0.43207,-0.027284 0.41444,-0.021701 -0.86258,-0.6755338 -0.21604,-0.4092546 0.64654,0.2662793 3.20336,1.1774721 3.96965,1.5824515 0.76629,0.4049794 0.18645,0.3256144 0.43207,0.6548074 0.24562,0.3291929 0.67166,0.2849246 0.79665,0.218269 0.12499,-0.066655 0.28204,0.4042251 0.44555,0.5729567 0.16352,0.1687316 0.43526,0.3463703 0.52661,0.436512 0.0913,0.090142 0.40609,0.6820385 0.31054,0.9959771 -0.0956,0.3139382 0.0351,0.7812039 0.10799,0.9685109 0.0729,0.187306 0.19304,0.37173 0.21612,0.518389 0.0231,0.14666 -0.0786,0.163056 -0.0271,0.327365 0.0515,0.164309 0.17328,0.524595 0.21613,0.886752 0.0428,0.362156 0.46499,0.952663 -0.16212,1.050387 -0.62711,0.09772 -1.97054,-0.235034 -2.795,-0.491106 -0.82447,-0.256072 -1.32946,-0.270895 -1.76875,-0.627523 -0.43929,-0.356628 -0.57347,-0.690875 -1.06666,-0.941228 -0.49319,-0.250353 -0.84127,-0.285613 -1.20172,-0.422917 -0.36044,-0.137303 -0.60369,-0.289086 -0.75612,-0.027322 -0.15243,0.261763 0.49096,0.354994 0.72912,0.491106 0.23816,0.136112 0.41719,0.0031 0.16205,0.136458 -0.25514,0.133424 -0.47681,-0.05958 -0.78315,-0.0546 -0.30635,0.005 -0.6871,0.178201 -0.97216,0.190985 -0.28506,0.01278 -1.0553,-0.128052 -1.26921,-0.136418 -0.2139,-0.0084 -0.29038,-0.03903 -0.24304,0.190986 0.0473,0.230008 0.76573,0.200742 1.05317,0.272836 0.28745,0.0721 -0.56259,-0.06458 -0.67511,-0.02729 -0.11251,0.03729 -0.26097,-0.07792 -0.27004,0.109134 -0.009,0.187053 0.46052,0.293038 0.72912,0.381972 0.2686,0.08893 0.71301,0.01991 0.75617,0.150053 0.0432,0.130146 0.25787,0.259855 0.59405,0.231917 0.33618,-0.02794 1.08733,-0.122885 1.29621,-0.190985 0.20888,-0.0681 0.57765,-0.12602 0.89113,0.04089 0.31348,0.166909 0.79004,0.348538 1.35027,0.709388 0.56024,0.360851 2.04027,0.9196497 2.64289,1.1842157 0.60262,0.264566 0.8991,0.334565 0.97559,0.46645 0.0765,0.131884 -0.43378,0.347835 -0.67504,1.118643 -0.24125,0.770809 -0.72663,4.069414 -0.81013,4.91106 -0.0835,0.841646 0.11767,-1.923942 -0.0477,0.241044 -0.16538,2.164985 -3.00638,1.127112 -1.46453,1.586968 1.54185,0.459856 3.32735,0.491498 3.98041,0.245552 0.65306,-0.245945 0.17265,0.1665 0.25928,0.572957 0.0866,0.406458 0.73481,1.027635 0.91815,1.582451 0.18334,0.554816 0.0605,1.165253 0.18903,1.664303 0.12851,0.499049 0.41081,0.621533 0.54009,1.309615 0.12928,0.688082 0.17848,1.889568 -0.054,2.782931 -0.10787,0.414486 -0.53946,0.926135 -0.74149,1.398007 -0.23343,0.545178 -0.2499,1.024349 -0.55472,1.030238 -0.56866,0.01098 -0.63759,-0.120118 -0.91815,-0.02729 -0.28056,0.09283 -0.72912,0.409253 -0.72912,0.409253"
         id="path899"
         sodipodi:nodetypes="czzzzzzzzzzzzzzcczzzzzzzzszzzzzzzzssszzzzzzzzzzzzzzzzzzzzzzzzzzzzzzzzzzzzzzzzzzzzzzzzzzzzzzzzzzzzzzzszzzzzzzsssszsssszzsssssszzzzzzzcczzssszzssszzzzcczzzssszssszssszzzzzzzzzzzzzzzzzzzzzzzzzzzzzzzzzzzzzzzzzzzzzzzzzssszc" />
    </g>
  </g>
</svg>
